<svg width="64" height="97" viewBox="0 0 64 97" fill="none" xmlns="http://www.w3.org/2000/svg">
<g filter="url(#filter0_d_262_265)">
<path d="M41.3596 7.27999C43.4716 7.536 44.5916 8.592 44.7196 10.448C44.8476 14.288 44.9436 18.768 45.0076 23.888C45.0716 28.944 45.1036 34.224 45.1036 39.728C45.1676 45.168 45.1676 50.544 45.1036 55.856C45.0396 61.104 44.9756 65.84 44.9116 70.064C44.8476 72.88 44.2076 75.024 42.9916 76.496C41.7756 77.968 39.6956 78.768 36.7516 78.896C35.2156 78.96 33.9996 78.8 33.1036 78.416C32.2076 78.096 31.5036 77.552 30.9916 76.784C30.5436 76.016 30.2236 75.056 30.0316 73.904C29.8396 72.752 29.7116 71.44 29.6476 69.968C29.3276 62.992 29.0396 55.792 28.7836 48.368C28.5916 40.88 28.3996 33.584 28.2076 26.48C27.4396 26.8 26.4476 27.248 25.2316 27.824C24.0156 28.336 22.7036 28.912 21.2956 29.552C19.9516 30.192 18.5756 30.8 17.1676 31.376C15.8236 31.888 14.6396 32.24 13.6156 32.432C12.3996 32.688 11.3756 32.56 10.5436 32.048C9.71157 31.472 8.91157 30.416 8.14357 28.88C7.37557 27.344 7.02357 26.064 7.08757 25.04C7.21557 23.952 7.63157 23.12 8.33557 22.544C9.48757 21.648 10.8636 20.624 12.4636 19.472C14.0636 18.32 15.7276 17.168 17.4556 16.016C19.1836 14.8 20.8476 13.616 22.4476 12.464C24.1116 11.312 25.5516 10.32 26.7676 9.488C27.8556 8.72 28.8476 8.176 29.7436 7.856C30.6396 7.536 31.5996 7.312 32.6236 7.184C33.9036 7.056 35.3756 7.024 37.0396 7.088C38.7036 7.088 40.1436 7.152 41.3596 7.27999Z" fill="#E2ED6A"/>
<path d="M41.3596 7.27999L43.0442 -6.61828L42.9348 -6.63154L42.8251 -6.64308L41.3596 7.27999ZM44.7196 10.448L58.7118 9.98159L58.7035 9.73295L58.6864 9.48476L44.7196 10.448ZM45.0076 23.888L31.0087 24.063L31.0087 24.0652L45.0076 23.888ZM45.1036 39.728H31.1036V39.8103L31.1045 39.8927L45.1036 39.728ZM45.1036 55.856L59.1025 56.0267L59.1026 56.0247L45.1036 55.856ZM44.9116 70.064L58.908 70.3821L58.9092 70.3291L58.91 70.2761L44.9116 70.064ZM42.9916 76.496L32.1981 67.5797L32.1981 67.5797L42.9916 76.496ZM36.7516 78.896L37.3344 92.8839L37.347 92.8833L37.3597 92.8828L36.7516 78.896ZM33.1036 78.416L38.6184 65.548L38.2203 65.3773L37.8123 65.2316L33.1036 78.416ZM30.9916 76.784L18.8987 83.8382L19.1101 84.2007L19.3429 84.5498L30.9916 76.784ZM30.0316 73.904L43.8411 71.6024V71.6024L30.0316 73.904ZM29.6476 69.968L43.6344 69.3599L43.6336 69.3432L43.6329 69.3265L29.6476 69.968ZM28.7836 48.368L14.7882 48.7269L14.7898 48.7887L14.7919 48.8505L28.7836 48.368ZM28.2076 26.48L42.2025 26.1018L41.6514 5.7117L22.8229 13.5569L28.2076 26.48ZM25.2316 27.824L30.6644 40.7269L30.9473 40.6078L31.2248 40.4763L25.2316 27.824ZM21.2956 29.552L15.5023 16.8069L15.3889 16.8584L15.2765 16.912L21.2956 29.552ZM17.1676 31.376L22.1515 44.4588L22.3107 44.3982L22.4684 44.3337L17.1676 31.376ZM13.6156 32.432L11.0355 18.6718L10.8831 18.7004L10.7314 18.7323L13.6156 32.432ZM10.5436 32.048L2.57463 43.5587L2.88486 43.7735L3.20621 43.9712L10.5436 32.048ZM8.14357 28.88L20.6656 22.619L20.6655 22.619L8.14357 28.88ZM7.08757 25.04L-6.81654 23.4042L-6.86128 23.7845L-6.88517 24.1667L7.08757 25.04ZM8.33557 22.544L-0.259601 11.4931L-0.396012 11.5992L-0.529764 11.7086L8.33557 22.544ZM12.4636 19.472L20.6438 30.8335L12.4636 19.472ZM17.4556 16.016L25.2214 27.6647L25.3682 27.5668L25.5125 27.4653L17.4556 16.016ZM22.4476 12.464L14.4786 0.953306L14.3723 1.02694L14.2673 1.10252L22.4476 12.464ZM26.7676 9.488L34.6731 21.0423L34.7576 20.9845L34.8411 20.9256L26.7676 9.488ZM29.7436 7.856L25.0349 -5.32839L25.0349 -5.32839L29.7436 7.856ZM32.6236 7.184L31.2305 -6.74653L31.0586 -6.72933L30.8871 -6.70789L32.6236 7.184ZM37.0396 7.088L36.5015 21.0777L36.7704 21.088H37.0396V7.088ZM39.6749 21.1783C38.8721 21.081 36.4877 20.6267 34.1794 18.4502C31.6637 16.0783 30.8777 13.2235 30.7527 11.4112L58.6864 9.48476C58.4334 5.81644 57.0235 1.50571 53.3877 -1.92226C49.9594 -5.15468 45.959 -6.26497 43.0442 -6.61828L39.6749 21.1783ZM30.7273 10.9144C30.8512 14.6316 30.9455 19.0104 31.0087 24.063L59.0065 23.713C58.9416 18.5255 58.8439 13.9444 58.7118 9.98159L30.7273 10.9144ZM31.0087 24.0652C31.0719 29.0572 31.1036 34.278 31.1036 39.728H59.1036C59.1036 34.17 59.0713 28.8308 59.0064 23.7108L31.0087 24.0652ZM31.1045 39.8927C31.1673 45.2242 31.1672 50.4891 31.1046 55.6873L59.1026 56.0247C59.1679 50.5989 59.1679 45.1118 59.1026 39.5633L31.1045 39.8927ZM31.1046 55.6853C31.0407 60.9226 30.9769 65.6445 30.9132 69.8519L58.91 70.2761C58.9742 66.0355 59.0384 61.2854 59.1025 56.0267L31.1046 55.6853ZM30.9152 69.7459C30.9046 70.2115 30.8528 70.167 30.9685 69.7795C31.0938 69.3598 31.4251 68.5153 32.1981 67.5797L53.785 85.4123C57.7602 80.6003 58.8052 74.9042 58.908 70.3821L30.9152 69.7459ZM32.1981 67.5797C33.3629 66.1697 34.6649 65.452 35.4939 65.1332C36.2392 64.8465 36.5607 64.8911 36.1434 64.9092L37.3597 92.8828C42.1272 92.6755 48.9453 91.271 53.785 85.4123L32.1981 67.5797ZM36.1687 64.9081C36.0132 64.9146 36.153 64.8961 36.5139 64.9436C36.8646 64.9898 37.6316 65.1251 38.6184 65.548L27.5887 91.284C31.2014 92.8323 34.7874 92.99 37.3344 92.8839L36.1687 64.9081ZM37.8123 65.2316C39.6585 65.891 41.4275 67.1991 42.6403 69.0182L19.3429 84.5498C21.5796 87.9049 24.7567 90.301 28.3949 91.6004L37.8123 65.2316ZM43.0845 69.7298C43.7138 70.8087 43.8367 71.5761 43.8411 71.6024L16.2221 76.2056C16.6104 78.5359 17.3733 81.2233 18.8987 83.8382L43.0845 69.7298ZM43.8411 71.6024C43.7629 71.1332 43.6797 70.4036 43.6344 69.3599L15.6608 70.5761C15.7434 72.4764 15.9162 74.3708 16.2221 76.2056L43.8411 71.6024ZM43.6329 69.3265C43.3154 62.4067 43.0295 55.2598 42.7752 47.8855L14.7919 48.8505C15.0496 56.3242 15.3397 63.5773 15.6623 70.6095L43.6329 69.3265ZM42.779 48.0091C42.5868 40.515 42.3946 33.2126 42.2025 26.1018L14.2127 26.8582C14.4045 33.9554 14.5963 41.245 14.7882 48.7269L42.779 48.0091ZM22.8229 13.5569C21.7646 13.9979 20.5492 14.5507 19.2384 15.1717L31.2248 40.4763C32.3459 39.9453 33.1145 39.6021 33.5922 39.4031L22.8229 13.5569ZM19.7988 14.9211C18.4435 15.4918 17.01 16.1215 15.5023 16.8069L27.0888 42.2971C28.3971 41.7025 29.5877 41.1802 30.6644 40.7269L19.7988 14.9211ZM15.2765 16.912C14.174 17.437 13.0377 17.9393 11.8667 18.4183L22.4684 44.3337C24.1135 43.6607 25.7291 42.947 27.3146 42.192L15.2765 16.912ZM12.1836 18.2932C11.7871 18.4442 11.4894 18.5428 11.282 18.6045C11.0714 18.6671 10.9946 18.6795 11.0355 18.6718L16.1956 46.1922C18.282 45.801 20.2987 45.1647 22.1515 44.4588L12.1836 18.2932ZM10.7314 18.7323C12.03 18.4589 14.8913 18.285 17.8809 20.1248L3.20621 43.9712C7.85983 46.835 12.7691 46.9171 16.4997 46.1317L10.7314 18.7323ZM18.5125 20.5373C19.6253 21.3077 20.2444 22.0606 20.4789 22.37C20.7262 22.6965 20.7705 22.8288 20.6656 22.619L-4.37842 35.141C-3.2009 37.496 -1.10377 41.0121 2.57463 43.5587L18.5125 20.5373ZM20.6655 22.619C20.5775 22.443 20.6782 22.6042 20.8024 23.0558C20.9225 23.4925 21.1484 24.5032 21.0603 25.9133L-6.88517 24.1667C-7.17456 28.7969 -5.59174 32.7143 -4.37841 35.141L20.6655 22.619ZM20.9917 26.6758C20.8992 27.4622 20.6507 28.5947 20.0175 29.861C19.3633 31.1694 18.4118 32.3887 17.2009 33.3794L-0.529764 11.7086C-4.59828 15.0374 -6.35671 19.4957 -6.81654 23.4042L20.9917 26.6758ZM16.9307 33.5949C17.9087 32.8343 19.139 31.9169 20.6438 30.8335L4.2833 8.11052C2.58809 9.33107 1.06646 10.4617 -0.259601 11.4931L16.9307 33.5949ZM20.6438 30.8335C22.1004 29.7847 23.6259 28.7284 25.2214 27.6647L9.68976 4.36729C7.82926 5.60763 6.02672 6.85526 4.2833 8.11052L20.6438 30.8335ZM25.5125 27.4653C27.2788 26.2223 28.9841 25.009 30.6278 23.8255L14.2673 1.10252C12.711 2.22302 11.0883 3.37771 9.39866 4.56671L25.5125 27.4653ZM30.4165 23.9747C32.0666 22.8323 33.4844 21.8556 34.6731 21.0423L18.862 -2.0663C17.6187 -1.21562 16.1565 -0.208332 14.4786 0.953306L30.4165 23.9747ZM34.8411 20.9256C35.0271 20.7942 35.0983 20.7579 35.0592 20.7794C35.0236 20.7989 34.8174 20.91 34.4523 21.0404L25.0349 -5.32839C22.5731 -4.44918 20.4398 -3.18186 18.694 -1.94957L34.8411 20.9256ZM34.4523 21.0404C34.3824 21.0653 34.3355 21.0774 34.3168 21.0818C34.2985 21.0861 34.3113 21.082 34.3601 21.0759L30.8871 -6.70789C28.9342 -6.46378 26.97 -6.01953 25.0349 -5.32839L34.4523 21.0404ZM34.0166 21.1145C34.5004 21.0661 35.3052 21.0316 36.5015 21.0777L37.5776 -6.90166C35.446 -6.98365 33.3068 -6.95415 31.2305 -6.74653L34.0166 21.1145ZM37.0396 21.088C38.3755 21.088 39.3026 21.1408 39.894 21.2031L42.8251 -6.64308C40.9846 -6.83683 39.0317 -6.912 37.0396 -6.912V21.088Z" fill="#252322"/>
</g>
<defs>
<filter id="filter0_d_262_265" x="0.992188" y="0.992188" width="62.207" height="96" filterUnits="userSpaceOnUse" color-interpolation-filters="sRGB">
<feFlood flood-opacity="0" result="BackgroundImageFix"/>
<feColorMatrix in="SourceAlpha" type="matrix" values="0 0 0 0 0 0 0 0 0 0 0 0 0 0 0 0 0 0 127 0" result="hardAlpha"/>
<feOffset dx="6" dy="6"/>
<feGaussianBlur stdDeviation="6"/>
<feComposite in2="hardAlpha" operator="out"/>
<feColorMatrix type="matrix" values="0 0 0 0 0 0 0 0 0 0 0 0 0 0 0 0 0 0 0.5 0"/>
<feBlend mode="normal" in2="BackgroundImageFix" result="effect1_dropShadow_262_265"/>
<feBlend mode="normal" in="SourceGraphic" in2="effect1_dropShadow_262_265" result="shape"/>
</filter>
</defs>
</svg>
