<svg width="81" height="105" viewBox="0 0 81 105" fill="none" xmlns="http://www.w3.org/2000/svg">
<g filter="url(#filter0_d_262_273)">
<path d="M59.7941 81.52C58.8341 82.608 57.6181 83.28 56.1461 83.536C50.1301 84.432 43.7301 85.104 36.9461 85.552C30.1621 86.064 23.3141 86.384 16.4021 86.512C15.3781 86.512 14.5141 86.352 13.8101 86.032C13.1061 85.712 12.5301 85.264 12.0821 84.688C11.6341 84.176 11.2821 83.536 11.0261 82.768C10.7701 82.064 10.6101 81.328 10.5461 80.56C10.3541 79.088 10.5781 77.776 11.2181 76.624C11.8581 75.472 12.6261 74.416 13.5221 73.456C13.7141 73.2 14.3221 72.624 15.3461 71.728C16.3701 70.768 17.5541 69.648 18.8981 68.368C20.3061 67.024 21.8101 65.616 23.4101 64.144C25.0741 62.608 26.6421 61.168 28.1141 59.824C29.5861 58.416 30.8661 57.2 31.9541 56.176C33.1061 55.088 33.9061 54.352 34.3541 53.968C37.4901 50.96 40.0501 48.24 42.0341 45.808C44.0181 43.376 45.1061 41.072 45.2981 38.896C45.6181 35.888 44.8501 33.488 42.9941 31.696C41.1381 29.84 38.1621 29.008 34.0661 29.2C32.8501 29.264 31.6341 29.52 30.4181 29.968C29.2661 30.416 28.1781 31.056 27.1541 31.888C26.1301 32.656 25.2021 33.584 24.3701 34.672C23.6021 35.696 23.0261 36.816 22.6421 38.032C22.3221 39.12 21.7781 40.016 21.0101 40.72C20.2421 41.36 19.3781 41.872 18.4181 42.256C17.4581 42.576 16.4341 42.768 15.3461 42.832C14.2581 42.832 13.2021 42.704 12.1781 42.448C10.5141 41.936 9.17007 41.104 8.14607 39.952C7.12207 38.8 6.64207 37.456 6.70607 35.92C6.83407 33.424 7.63407 30.992 9.10607 28.624C10.5781 26.256 12.5301 24.144 14.9621 22.288C17.4581 20.368 20.3381 18.8 23.6021 17.584C26.9301 16.304 30.4821 15.504 34.2581 15.184C37.9061 14.864 41.3941 15.152 44.7221 16.048C48.1141 16.88 51.0901 18.224 53.6501 20.08C56.2101 21.872 58.2261 24.08 59.6981 26.704C61.2341 29.328 62.0021 32.208 62.0021 35.344C62.0021 39.184 61.2021 42.768 59.6021 46.096C58.0021 49.424 55.3781 52.848 51.7301 56.368C50.1941 57.84 48.5941 59.344 46.9301 60.88C45.2661 62.416 43.5701 63.92 41.8421 65.392C40.1781 66.864 38.5461 68.272 36.9461 69.616C35.4101 70.896 34.0021 72.016 32.7221 72.976C37.0741 72.592 41.2341 72.272 45.2021 72.016C49.1701 71.76 52.8821 71.568 56.3381 71.44C57.7461 71.376 58.8661 71.792 59.6981 72.688C60.5941 73.584 61.0741 74.896 61.1381 76.624C61.2021 78.8 60.7541 80.432 59.7941 81.52Z" fill="#E2ED6A"/>
<path d="M59.7941 81.52L50.0462 72.9189L50.0462 72.9189L59.7941 81.52ZM56.1461 83.536L58.0611 96.3942L58.2176 96.3709L58.3735 96.3438L56.1461 83.536ZM36.9461 85.552L36.0894 72.5803L36.0286 72.5843L35.9677 72.5889L36.9461 85.552ZM16.4021 86.512V99.512H16.5224L16.6428 99.5098L16.4021 86.512ZM13.8101 86.032L8.43063 97.8668L8.43063 97.8668L13.8101 86.032ZM12.0821 84.688L22.3436 76.7068L22.113 76.4102L21.8656 76.1274L12.0821 84.688ZM11.0261 82.768L23.3589 78.657L23.3034 78.4904L23.2434 78.3253L11.0261 82.768ZM10.5461 80.56L23.5012 79.4804L23.476 79.1787L23.4369 78.8786L10.5461 80.56ZM11.2181 76.624L-0.145976 70.3106L-0.145978 70.3106L11.2181 76.624ZM13.5221 73.456L23.0258 82.3261L23.5027 81.8152L23.9221 81.256L13.5221 73.456ZM15.3461 71.728L23.9066 81.5115L24.0745 81.3646L24.2373 81.212L15.3461 71.728ZM18.8981 68.368L27.8636 77.7818L27.8689 77.7767L27.8743 77.7716L18.8981 68.368ZM23.4101 64.144L32.2118 73.7111L32.2198 73.7038L32.2277 73.6964L23.4101 64.144ZM28.1141 59.824L36.8796 69.4243L36.991 69.3226L37.1 69.2183L28.1141 59.824ZM31.9541 56.176L40.8638 65.6426L40.872 65.6349L40.8802 65.6272L31.9541 56.176ZM34.3541 53.968L42.8144 63.8383L43.0905 63.6016L43.353 63.3499L34.3541 53.968ZM42.0341 45.808L31.9608 37.5904H31.9608L42.0341 45.808ZM45.2981 38.896L32.371 37.5208L32.3587 37.637L32.3484 37.7534L45.2981 38.896ZM42.9941 31.696L33.8017 40.8884L33.8823 40.969L33.9643 41.0482L42.9941 31.696ZM34.0661 29.2L33.4574 16.2143L33.4201 16.216L33.3828 16.218L34.0661 29.2ZM30.4181 29.968L25.9239 17.7695L25.8147 17.8098L25.7063 17.8519L30.4181 29.968ZM27.1541 31.888L34.9541 42.288L35.1559 42.1366L35.3518 41.9775L27.1541 31.888ZM24.3701 34.672L14.0434 26.7751L14.0065 26.8234L13.9701 26.872L24.3701 34.672ZM22.6421 38.032L10.2455 34.1173L10.2067 34.2402L10.1703 34.3638L22.6421 38.032ZM21.0101 40.72L29.3325 50.7069L29.5682 50.5104L29.7945 50.303L21.0101 40.72ZM18.4181 42.256L22.529 54.5889L22.8914 54.4681L23.2461 54.3262L18.4181 42.256ZM15.3461 42.832V55.832H15.7281L16.1094 55.8096L15.3461 42.832ZM12.1781 42.448L8.35496 54.8731L8.68753 54.9755L9.0251 55.0598L12.1781 42.448ZM6.70607 35.92L-6.27687 35.2542L-6.28007 35.3165L-6.28266 35.3788L6.70607 35.92ZM9.10607 28.624L-1.93464 21.7609H-1.93464L9.10607 28.624ZM14.9621 22.288L22.8488 32.6224L22.8686 32.6073L22.8883 32.5921L14.9621 22.288ZM23.6021 17.584L28.1405 29.7661L28.2048 29.7421L28.2688 29.7175L23.6021 17.584ZM34.2581 15.184L35.3558 28.1376L35.3749 28.1359L35.3941 28.1343L34.2581 15.184ZM44.7221 16.048L41.3424 28.601L41.4834 28.639L41.6252 28.6737L44.7221 16.048ZM53.6501 20.08L46.0195 30.6049L46.1068 30.6682L46.1951 30.73L53.6501 20.08ZM59.6981 26.704L48.3602 33.0643L48.4186 33.1683L48.4789 33.2713L59.6981 26.704ZM59.6021 46.096L71.3184 51.7288V51.7288L59.6021 46.096ZM51.7301 56.368L60.7248 65.7538L60.7409 65.7385L60.7569 65.723L51.7301 56.368ZM46.9301 60.88L55.7477 70.4324L55.7477 70.4324L46.9301 60.88ZM41.8421 65.392L33.412 55.4958L33.3196 55.5746L33.2286 55.655L41.8421 65.392ZM36.9461 69.616L45.2685 79.6029L45.288 79.5866L45.3076 79.5702L36.9461 69.616ZM32.7221 72.976L24.9221 62.576L-11.5543 89.9332L33.8647 85.9257L32.7221 72.976ZM56.3381 71.44L56.8192 84.4311L56.8738 84.4291L56.9284 84.4266L56.3381 71.44ZM59.6981 72.688L50.1718 81.5339L50.3355 81.7102L50.5057 81.8804L59.6981 72.688ZM61.1381 76.624L74.1324 76.2418L74.131 76.1923L74.1292 76.1429L61.1381 76.624ZM50.0462 72.9189C50.5076 72.3959 51.121 71.8781 51.8741 71.4619C52.6229 71.0481 53.3386 70.8291 53.9186 70.7282L58.3735 96.3438C62.6639 95.5976 66.5642 93.4958 69.542 90.1211L50.0462 72.9189ZM54.231 70.6778C48.6041 71.5159 42.5598 72.153 36.0894 72.5803L37.8027 98.5237C44.9004 98.055 51.656 97.3481 58.0611 96.3942L54.231 70.6778ZM35.9677 72.5889C29.4331 73.082 22.8312 73.3907 16.1614 73.5142L16.6428 99.5098C23.797 99.3773 30.891 99.046 37.9244 98.5151L35.9677 72.5889ZM16.4021 73.512C16.6609 73.512 17.7505 73.5431 19.1895 74.1972L8.43063 97.8668C11.2776 99.1609 14.0952 99.512 16.4021 99.512V73.512ZM19.1895 74.1972C20.2829 74.6942 21.4229 75.5229 22.3436 76.7068L1.82049 92.6692C3.63728 95.0051 5.92925 96.7298 8.43063 97.8668L19.1895 74.1972ZM21.8656 76.1274C22.7487 77.1367 23.1708 78.0926 23.3589 78.657L-1.30682 86.879C-0.606668 88.9794 0.519444 91.2153 2.29857 93.2486L21.8656 76.1274ZM23.2434 78.3253C23.3926 78.7356 23.4722 79.1329 23.5012 79.4804L-2.40903 81.6396C-2.25207 83.5231 -1.85244 85.3924 -1.19125 87.2107L23.2434 78.3253ZM23.4369 78.8786C23.4895 79.2824 23.5145 79.8992 23.3846 80.6599C23.2521 81.4363 22.9823 82.217 22.5821 82.9374L-0.145978 70.3106C-2.30605 74.1988 -2.84906 78.3749 -2.34474 82.2414L23.4369 78.8786ZM22.5821 82.9374C22.7102 82.7068 22.8542 82.51 23.0258 82.3261L4.01835 64.5859C2.39793 66.322 1.00594 68.2372 -0.145976 70.3106L22.5821 82.9374ZM23.9221 81.256C23.7941 81.4266 23.6815 81.5672 23.5941 81.6732C23.5056 81.7806 23.4286 81.8699 23.3682 81.9384C23.2508 82.0717 23.1607 82.1668 23.1149 82.2144C23.066 82.2652 23.0362 82.2946 23.0321 82.2986C23.0269 82.3038 23.0361 82.2947 23.0627 82.2694C23.1183 82.2167 23.2151 82.1268 23.3631 81.9934C23.5088 81.8619 23.6887 81.7021 23.9066 81.5115L6.78551 61.9445C6.21324 62.4452 5.66198 62.9393 5.18139 63.3946C4.93008 63.6327 3.96407 64.5333 3.12207 65.656L23.9221 81.256ZM24.2373 81.212C25.2926 80.2227 26.5022 79.0783 27.8636 77.7818L9.93255 58.9542C8.6059 60.2177 7.44756 61.3133 6.45483 62.244L24.2373 81.212ZM27.8743 77.7716C29.2184 76.4886 30.6638 75.1353 32.2118 73.7111L14.6083 54.5769C12.9563 56.0967 11.3937 57.5594 9.92188 58.9644L27.8743 77.7716ZM32.2277 73.6964C33.8767 72.1743 35.4271 70.7504 36.8796 69.4243L19.3486 50.2237C17.857 51.5856 16.2715 53.0417 14.5924 54.5916L32.2277 73.6964ZM37.1 69.2183C38.555 67.8265 39.8085 66.6358 40.8638 65.6426L23.0443 46.7094C21.9236 47.7642 20.6171 49.0055 19.1282 50.4297L37.1 69.2183ZM40.8802 65.6272C42.051 64.5214 42.6369 63.9904 42.8144 63.8383L25.8938 44.0977C25.1752 44.7136 24.1611 45.6546 23.028 46.7248L40.8802 65.6272ZM43.353 63.3499C46.7371 60.1038 49.6899 56.989 52.1073 54.0256L31.9608 37.5904C30.4103 39.491 28.243 41.8162 25.3551 44.5861L43.353 63.3499ZM52.1073 54.0256C55.05 50.4185 57.7471 45.7123 58.2478 40.0386L32.3484 37.7534C32.4076 37.0818 32.5786 36.7138 32.5828 36.7049C32.5842 36.7021 32.5482 36.7784 32.4476 36.9335C32.3469 37.0887 32.1911 37.3081 31.9608 37.5904L52.1073 54.0256ZM58.2251 40.2712C58.8869 34.051 57.2797 27.4185 52.0238 22.3438L33.9643 41.0482C33.3852 40.489 32.8673 39.6983 32.5806 38.8021C32.3146 37.971 32.3774 37.4607 32.371 37.5208L58.2251 40.2712ZM52.1865 22.5036C46.5911 16.9083 39.1816 15.9459 33.4574 16.2143L34.6748 42.1857C35.7618 42.1348 36.0737 42.2569 35.8699 42.1999C35.7452 42.1651 35.4568 42.0704 35.0723 41.8565C34.6791 41.6377 34.2344 41.3211 33.8017 40.8884L52.1865 22.5036ZM33.3828 16.218C30.7832 16.3548 28.285 16.8996 25.9239 17.7695L34.9122 42.1665C34.9535 42.1512 34.9551 42.1538 34.9202 42.1611C34.8844 42.1687 34.8256 42.178 34.7493 42.182L33.3828 16.218ZM25.7063 17.8519C23.2116 18.8221 20.959 20.1714 18.9564 21.7985L35.3518 41.9775C35.3798 41.9547 35.3728 41.9636 35.3293 41.9891C35.285 42.0152 35.2174 42.05 35.1299 42.084L25.7063 17.8519ZM19.3541 21.488C17.3129 23.0189 15.5485 24.807 14.0434 26.7751L34.6967 42.5688C34.8557 42.361 34.9473 42.2931 34.9541 42.288L19.3541 21.488ZM13.9701 26.872C12.3255 29.0647 11.0728 31.4975 10.2455 34.1173L35.0386 41.9467C35.0126 42.0292 34.9744 42.1252 34.9228 42.2255C34.8713 42.3257 34.8172 42.4091 34.7701 42.472L13.9701 26.872ZM10.1703 34.3638C10.457 33.3892 11.0959 32.1726 12.2256 31.137L29.7945 50.303C32.4602 47.8594 34.1872 44.8507 35.1138 41.7002L10.1703 34.3638ZM12.6877 30.7331C13.0036 30.4699 13.3269 30.291 13.59 30.1858L23.2461 54.3262C25.4292 53.453 27.4806 52.2501 29.3325 50.7069L12.6877 30.7331ZM14.3071 29.9231C14.5097 29.8556 14.6186 29.8523 14.5827 29.8544L16.1094 55.8096C18.2496 55.6837 20.4065 55.2964 22.529 54.5889L14.3071 29.9231ZM15.3461 29.832C15.3291 29.832 15.3175 29.8315 15.3108 29.8311C15.3041 29.8307 15.3015 29.8304 15.3024 29.8305C15.3033 29.8306 15.3067 29.831 15.3122 29.832C15.3177 29.833 15.3241 29.8344 15.331 29.8361L9.0251 55.0598C11.1116 55.5815 13.228 55.832 15.3461 55.832V29.832ZM16.0012 30.0229C16.1239 30.0606 16.4029 30.1626 16.7647 30.3865C17.1349 30.6157 17.5172 30.9269 17.8624 31.3153L-1.57026 48.5887C1.23177 51.741 4.71856 53.7542 8.35496 54.8731L16.0012 30.0229ZM17.8624 31.3153C18.3689 31.8851 18.8964 32.6875 19.2607 33.7076C19.6253 34.7284 19.727 35.6887 19.6948 36.4612L-6.28266 35.3788C-6.4874 40.2924 -4.82717 44.9247 -1.57026 48.5887L17.8624 31.3153ZM19.689 36.5858C19.6918 36.5317 19.6992 36.2071 20.1468 35.4871L-1.93464 21.7609C-4.4311 25.7769 -6.02364 30.3163 -6.27687 35.2542L19.689 36.5858ZM20.1468 35.4871C20.7093 34.5821 21.548 33.6151 22.8488 32.6224L7.07532 11.9536C3.5121 14.6729 0.446796 17.9298 -1.93464 21.7609L20.1468 35.4871ZM22.8883 32.5921C24.2524 31.5428 25.9654 30.5764 28.1405 29.7661L19.0637 5.40193C14.7107 7.0236 10.6638 9.19315 7.03583 11.9839L22.8883 32.5921ZM28.2688 29.7175C30.3821 28.9047 32.7255 28.3605 35.3558 28.1376L33.1603 2.23043C28.2386 2.64752 23.478 3.70332 18.9353 5.45051L28.2688 29.7175ZM35.3941 28.1343C37.6207 27.9389 39.5746 28.1251 41.3424 28.601L48.1017 3.49499C43.2135 2.17894 38.1914 1.78905 33.1221 2.23372L35.3941 28.1343ZM41.6252 28.6737C43.5553 29.1472 44.9563 29.8341 46.0195 30.6049L61.2806 9.55506C57.2238 6.61388 52.6728 4.61283 47.819 3.42226L41.6252 28.6737ZM46.1951 30.73C47.2185 31.4464 47.8811 32.2101 48.3602 33.0643L71.0359 20.3437C68.5711 15.9499 65.2016 12.2975 61.1051 9.42998L46.1951 30.73ZM48.4789 33.2713C48.811 33.8387 49.0021 34.4405 49.0021 35.344H75.0021C75.0021 29.9755 73.6572 24.8173 70.9173 20.1367L48.4789 33.2713ZM49.0021 35.344C49.0021 37.3139 48.6068 38.9635 47.8858 40.4632L71.3184 51.7288C73.7973 46.5725 75.0021 41.0541 75.0021 35.344H49.0021ZM47.8858 40.4632C47.1525 41.9885 45.6262 44.1926 42.7033 47.0129L60.7569 65.723C65.1299 61.5034 68.8517 56.8595 71.3184 51.7288L47.8858 40.4632ZM42.7353 46.9822C41.2614 48.3946 39.7206 49.843 38.1124 51.3276L55.7477 70.4324C57.4675 68.8449 59.1267 67.2854 60.7248 65.7538L42.7353 46.9822ZM38.1124 51.3275C36.5756 52.7461 35.0089 54.1356 33.412 55.4958L50.2721 75.2882C52.1313 73.7044 53.9565 72.0859 55.7477 70.4324L38.1124 51.3275ZM33.2286 55.655C31.6425 57.0581 30.0945 58.3935 28.5846 59.6618L45.3076 79.5702C46.9976 78.1505 48.7136 76.6699 50.4555 75.129L33.2286 55.655ZM28.6237 59.6291C27.2183 60.8003 25.9872 61.7772 24.9221 62.576L40.5221 83.376C42.017 82.2548 43.6019 80.9917 45.2685 79.6029L28.6237 59.6291ZM33.8647 85.9257C38.1247 85.5498 42.1824 85.2378 46.039 84.989L44.3651 59.043C40.2858 59.3062 36.0234 59.6342 31.5794 60.0263L33.8647 85.9257ZM46.039 84.989C49.9056 84.7396 53.4979 84.5541 56.8192 84.4311L55.8569 58.4489C52.2663 58.5819 48.4345 58.7804 44.3651 59.043L46.039 84.989ZM56.9284 84.4266C56.1986 84.4598 55.0487 84.3886 53.7076 83.8905C52.3172 83.3741 51.1049 82.5388 50.1718 81.5339L69.2244 63.8421C65.3806 59.7027 60.3234 58.2454 55.7478 58.4534L56.9284 84.4266ZM50.5057 81.8804C48.3468 79.7215 48.1596 77.4448 48.147 77.1051L74.1292 76.1429C73.9886 72.3472 72.8413 67.4465 68.8905 63.4956L50.5057 81.8804ZM48.1437 77.0062C48.1582 77.4988 47.9487 75.296 50.0462 72.9189L69.5419 90.1211C73.5594 85.568 74.246 80.1012 74.1324 76.2418L48.1437 77.0062Z" fill="#252322"/>
</g>
<defs>
<filter id="filter0_d_262_273" x="0.609375" y="8.7041" width="79.3926" height="95.8081" filterUnits="userSpaceOnUse" color-interpolation-filters="sRGB">
<feFlood flood-opacity="0" result="BackgroundImageFix"/>
<feColorMatrix in="SourceAlpha" type="matrix" values="0 0 0 0 0 0 0 0 0 0 0 0 0 0 0 0 0 0 127 0" result="hardAlpha"/>
<feOffset dx="6" dy="6"/>
<feGaussianBlur stdDeviation="6"/>
<feComposite in2="hardAlpha" operator="out"/>
<feColorMatrix type="matrix" values="0 0 0 0 0 0 0 0 0 0 0 0 0 0 0 0 0 0 0.5 0"/>
<feBlend mode="normal" in2="BackgroundImageFix" result="effect1_dropShadow_262_273"/>
<feBlend mode="normal" in="SourceGraphic" in2="effect1_dropShadow_262_273" result="shape"/>
</filter>
</defs>
</svg>
