<svg width="80" height="106" viewBox="0 0 80 106" fill="none" xmlns="http://www.w3.org/2000/svg">
<g filter="url(#filter0_d_262_274)">
<path d="M31.4182 46.768C33.5302 46.64 34.9062 46.512 35.5462 46.384C38.9382 46.064 41.5942 45.072 43.5142 43.408C45.4342 41.744 46.2982 39.664 46.1062 37.168C45.9142 34.16 44.6022 31.92 42.1702 30.448C39.7382 28.912 36.7622 28.368 33.2422 28.816C30.8102 29.136 28.6982 30.032 26.9062 31.504C25.1782 32.976 23.9302 34.64 23.1622 36.496C22.7782 37.52 22.1382 38.32 21.2422 38.896C20.4102 39.472 19.4822 39.888 18.4582 40.144C17.4342 40.4 16.3462 40.496 15.1942 40.432C14.0422 40.368 12.9862 40.208 12.0262 39.952C10.7462 39.568 9.72219 39.024 8.95419 38.32C8.18619 37.616 7.64219 36.784 7.32219 35.824C7.00219 34.864 6.90619 33.84 7.03419 32.752C7.16219 31.6 7.45019 30.48 7.89819 29.392C8.47419 27.856 9.53019 26.288 11.0662 24.688C12.6662 23.024 14.5862 21.52 16.8262 20.176C19.1302 18.768 21.7222 17.616 24.6022 16.72C27.5462 15.824 30.7142 15.312 34.1062 15.184C37.8182 15.12 41.3382 15.6 44.6662 16.624C48.0582 17.584 51.0022 18.992 53.4982 20.848C56.0582 22.64 58.0742 24.784 59.5462 27.28C61.0182 29.776 61.7542 32.464 61.7542 35.344C61.7542 39.952 60.5382 43.664 58.1062 46.48C55.7382 49.296 52.5382 51.248 48.5062 52.336C52.5382 52.848 55.6422 54.384 57.8182 56.944C60.0582 59.44 61.1782 62.768 61.1782 66.928C61.1782 69.872 60.5382 72.624 59.2582 75.184C57.9782 77.68 56.1862 79.856 53.8822 81.712C51.5782 83.568 48.7942 85.008 45.5302 86.032C42.2662 87.12 38.6822 87.664 34.7782 87.664C30.7462 87.664 27.0982 87.248 23.8342 86.416C20.6342 85.584 17.8822 84.464 15.5782 83.056C13.3382 81.648 11.6102 80.016 10.3942 78.16C9.17819 76.24 8.57019 74.256 8.57019 72.208C8.57019 70.864 8.85819 69.616 9.43419 68.464C10.0742 67.312 11.0342 66.448 12.3142 65.872C13.0822 65.488 13.8822 65.2 14.7142 65.008C15.6102 64.816 16.4742 64.752 17.3062 64.816C18.2022 64.88 19.0022 65.104 19.7062 65.488C20.4102 65.808 20.9862 66.32 21.4342 67.024C22.9062 69.52 24.8262 71.312 27.1942 72.4C29.5622 73.424 32.3462 73.968 35.5462 74.032C36.9542 74.032 38.2662 73.872 39.4822 73.552C40.6982 73.232 41.7542 72.752 42.6502 72.112C43.5462 71.408 44.2502 70.576 44.7622 69.616C45.2742 68.656 45.5302 67.568 45.5302 66.352C45.4662 64.688 44.5702 63.216 42.8422 61.936C41.1782 60.592 39.1302 59.824 36.6982 59.632C36.3142 59.632 35.5462 59.6 34.3942 59.536C33.2422 59.472 31.9942 59.408 30.6502 59.344C29.3702 59.216 28.1542 59.12 27.0022 59.056C25.8502 58.992 25.0822 58.96 24.6982 58.96C23.2262 58.896 22.1382 58.288 21.4342 57.136C20.7942 55.984 20.4742 54.672 20.4742 53.2C20.4742 51.728 20.7942 50.448 21.4342 49.36C22.1382 48.208 23.2262 47.536 24.6982 47.344C27.1302 47.024 29.3702 46.832 31.4182 46.768Z" fill="#E2ED6A"/>
<path d="M31.4182 46.768L31.8555 60.7612L32.0604 60.7548L32.2651 60.7424L31.4182 46.768ZM35.5462 46.384L34.2313 32.4459L33.5105 32.5139L32.8006 32.6559L35.5462 46.384ZM43.5142 43.408L52.6832 53.9876L52.6832 53.9876L43.5142 43.408ZM46.1062 37.168L32.1346 38.0598L32.1404 38.1508L32.1474 38.2418L46.1062 37.168ZM42.1702 30.448L34.6943 42.2848L34.807 42.356L34.921 42.425L42.1702 30.448ZM33.2422 28.816L31.4746 14.928L31.4452 14.9318L31.4158 14.9356L33.2422 28.816ZM26.9062 31.504L18.0198 20.6858L17.923 20.7654L17.8277 20.8466L26.9062 31.504ZM23.1622 36.496L10.226 31.1431L10.1361 31.3602L10.0536 31.5803L23.1622 36.496ZM21.2422 38.896L13.6716 27.1195L13.4701 27.249L13.2732 27.3853L21.2422 38.896ZM15.1942 40.432L15.9708 26.4536H15.9708L15.1942 40.432ZM12.0262 39.952L8.00331 53.3616L8.2102 53.4236L8.41891 53.4793L12.0262 39.952ZM8.95419 38.32L-0.505955 48.6402L-0.505943 48.6402L8.95419 38.32ZM7.32219 35.824L20.6038 31.3968L20.6038 31.3968L7.32219 35.824ZM7.03419 32.752L20.9383 34.3878L20.9436 34.3429L20.9486 34.298L7.03419 32.752ZM7.89819 29.392L20.8437 34.7225L20.9285 34.5164L21.0068 34.3077L7.89819 29.392ZM11.0662 24.688L0.974522 14.9845L0.966774 14.9925L11.0662 24.688ZM16.8262 20.176L24.0291 32.1809L24.0779 32.1516L24.1265 32.1219L16.8262 20.176ZM24.6022 16.72L20.5259 3.32657L20.4846 3.33916L20.4433 3.352L24.6022 16.72ZM34.1062 15.184L33.8649 1.18608L33.7215 1.18855L33.5783 1.19395L34.1062 15.184ZM44.6662 16.624L40.549 30.0049L40.7008 30.0516L40.8537 30.0949L44.6662 16.624ZM53.4982 20.848L45.1444 32.0825L45.3054 32.2022L45.4697 32.3172L53.4982 20.848ZM59.5462 27.28L71.6053 20.1682V20.1682L59.5462 27.28ZM58.1062 46.48L47.5107 37.3293L47.4504 37.3991L47.3911 37.4696L58.1062 46.48ZM48.5062 52.336L44.8589 38.8195L46.7426 66.2245L48.5062 52.336ZM57.8182 56.944L47.151 66.0111L47.273 66.1546L47.3988 66.2947L57.8182 56.944ZM59.2582 75.184L71.7156 81.5724L71.7482 81.5089L71.7802 81.445L59.2582 75.184ZM53.8822 81.712L45.0996 70.8094L45.0996 70.8094L53.8822 81.712ZM45.5302 86.032L41.3394 72.674L41.2209 72.7111L41.103 72.7504L45.5302 86.032ZM23.8342 86.416L20.3113 99.9655L20.3437 99.9739L20.3761 99.9822L23.8342 86.416ZM15.5782 83.056L8.12779 94.9089L8.20255 94.9559L8.27789 95.0019L15.5782 83.056ZM10.3942 78.16L-1.43327 85.6507L-1.37547 85.742L-1.31626 85.8324L10.3942 78.16ZM9.43419 68.464L-2.80401 61.665L-2.95175 61.9309L-3.08779 62.203L9.43419 68.464ZM12.3142 65.872L18.0593 78.6389L18.3197 78.5217L18.5752 78.394L12.3142 65.872ZM14.7142 65.008L11.7808 51.3188L11.6733 51.3418L11.5662 51.3665L14.7142 65.008ZM17.3062 64.816L16.2324 78.7748L16.2706 78.7777L16.3087 78.7804L17.3062 64.816ZM19.7062 65.488L13.0023 77.7785L13.4493 78.0224L13.913 78.2331L19.7062 65.488ZM21.4342 67.024L33.4933 59.9122L33.3728 59.7079L33.2455 59.5077L21.4342 67.024ZM27.1942 72.4L21.3492 85.1215L21.4926 85.1874L21.6374 85.25L27.1942 72.4ZM35.5462 74.032L35.2662 88.0292L35.4062 88.032H35.5462V74.032ZM39.4822 73.552L35.9193 60.013H35.9193L39.4822 73.552ZM42.6502 72.112L50.7875 83.5043L51.048 83.3182L51.2997 83.1205L42.6502 72.112ZM44.7622 69.616L32.4093 63.0278L32.4092 63.0278L44.7622 69.616ZM45.5302 66.352H59.5302V66.0829L59.5199 65.8139L45.5302 66.352ZM42.8422 61.936L34.0455 72.8272L34.2735 73.0113L34.509 73.1858L42.8422 61.936ZM36.6982 59.632L37.8 45.6754L37.25 45.632H36.6982V59.632ZM34.3942 59.536L35.1708 45.5576H35.1708L34.3942 59.536ZM30.6502 59.344L29.2572 73.2745L29.62 73.3108L29.9843 73.3282L30.6502 59.344ZM27.0022 59.056L26.2256 73.0344L27.0022 59.056ZM24.6982 58.96L24.0901 72.9468L24.394 72.96H24.6982V58.96ZM21.4342 57.136L9.19599 63.935L9.33692 64.1887L9.48825 64.4363L21.4342 57.136ZM21.4342 49.36L9.48824 42.0597L9.42683 42.1602L9.36712 42.2617L21.4342 49.36ZM24.6982 47.344L26.509 61.2264L26.5168 61.2254L26.5246 61.2244L24.6982 47.344ZM32.2651 60.7424C34.1602 60.6275 36.5366 60.4632 38.2918 60.1121L32.8006 32.6559C33.0923 32.5975 33.2466 32.5811 33.1646 32.5915C33.1117 32.5982 32.9768 32.6139 32.7375 32.6362C32.2555 32.681 31.5468 32.7345 30.5713 32.7936L32.2651 60.7424ZM36.8611 60.3221C42.1813 59.8202 47.9188 58.1168 52.6832 53.9876L34.3452 32.8284C34.5561 32.6456 34.7514 32.5128 34.9083 32.4218C35.0631 32.3319 35.1631 32.2926 35.1838 32.2849C35.2131 32.2739 34.9397 32.3791 34.2313 32.4459L36.8611 60.3221ZM52.6832 53.9876C57.8971 49.4689 60.6032 43.0917 60.065 36.0942L32.1474 38.2418C32.0934 37.5391 32.1684 36.4448 32.6732 35.2295C33.175 34.0215 33.8768 33.2343 34.3452 32.8284L52.6832 53.9876ZM60.0778 36.2762C59.6147 29.0216 56.0424 22.4796 49.4194 18.471L34.921 42.425C34.3377 42.072 33.5288 41.3848 32.8978 40.3076C32.2843 39.2602 32.1554 38.3851 32.1346 38.0598L60.0778 36.2762ZM49.6461 18.6112C43.8678 14.9617 37.4429 14.1684 31.4746 14.928L35.0098 42.704C35.5841 42.6309 35.7426 42.6865 35.5968 42.6598C35.5223 42.6462 35.3899 42.6147 35.2185 42.5488C35.0456 42.4824 34.8664 42.3935 34.6943 42.2848L49.6461 18.6112ZM31.4158 14.9356C26.5472 15.5762 21.9516 17.4562 18.0198 20.6858L35.7925 42.3222C35.6652 42.4268 35.492 42.5355 35.3019 42.6161C35.1169 42.6946 35.0192 42.7029 35.0686 42.6964L31.4158 14.9356ZM17.8277 20.8466C14.6335 23.5675 11.9464 26.9853 10.226 31.1431L36.0984 41.8489C36.018 42.0434 35.9293 42.1826 35.8742 42.256C35.8231 42.3241 35.8382 42.2862 35.9847 42.1614L17.8277 20.8466ZM10.0536 31.5803C10.3453 30.8023 10.7986 29.9476 11.462 29.1183C12.1281 28.2857 12.8933 27.6198 13.6716 27.1195L28.8128 50.6725C32.3174 48.4195 34.8583 45.1784 36.2708 41.4117L10.0536 31.5803ZM13.2732 27.3853C13.8878 26.9599 14.5213 26.6973 15.0627 26.562L21.8537 53.726C24.4431 53.0787 26.9326 51.9841 29.2111 50.4067L13.2732 27.3853ZM15.0627 26.562C15.5222 26.4471 15.8498 26.4468 15.9708 26.4536L14.4176 54.4104C16.8426 54.5452 19.3462 54.3529 21.8537 53.726L15.0627 26.562ZM15.9708 26.4536C15.626 26.4344 15.5338 26.3981 15.6335 26.4247L8.41891 53.4793C10.4386 54.0179 12.4583 54.3016 14.4176 54.4104L15.9708 26.4536ZM16.0491 26.5424C16.2388 26.5993 17.2504 26.9329 18.4143 27.9998L-0.505943 48.6402C2.19397 51.1151 5.25363 52.5367 8.00331 53.3616L16.0491 26.5424ZM18.4143 27.9998C19.3461 28.854 20.1485 30.0311 20.6038 31.3968L-5.95938 40.2512C-4.86415 43.5369 -2.97376 46.378 -0.505955 48.6402L18.4143 27.9998ZM20.6038 31.3968C20.9864 32.5448 21.0304 33.6049 20.9383 34.3878L-6.86992 31.1162C-7.21802 34.0751 -6.98205 37.1832 -5.95937 40.2512L20.6038 31.3968ZM20.9486 34.298C20.94 34.3749 20.9254 34.4554 20.9051 34.5346C20.8848 34.6135 20.8623 34.6773 20.8437 34.7225L-5.0473 24.0615C-5.98592 26.341 -6.60548 28.7336 -6.88018 31.206L20.9486 34.298ZM21.0068 34.3077C20.8581 34.7043 20.7264 34.8962 20.7343 34.8844C20.7369 34.8806 20.7683 34.8345 20.8396 34.7473C20.9109 34.6602 21.0168 34.5385 21.1656 34.3834L0.966774 14.9925C-1.44951 17.5095 -3.77574 20.6505 -5.21042 24.4763L21.0068 34.3077ZM21.1579 34.3915C21.7969 33.7269 22.7127 32.9708 24.0291 32.1809L9.62325 8.1711C6.4597 10.0692 3.5355 12.3211 0.974525 14.9845L21.1579 34.3915ZM24.1265 32.1219C25.3389 31.381 26.8562 30.6806 28.7611 30.088L20.4433 3.352C16.5882 4.55137 12.9215 6.15497 9.5259 8.23004L24.1265 32.1219ZM28.6785 30.1134C30.3587 29.602 32.3233 29.2612 34.6341 29.174L33.5783 1.19395C29.1051 1.36276 24.7336 2.04596 20.5259 3.32657L28.6785 30.1134ZM34.3475 29.1819C36.6812 29.1417 38.7229 29.443 40.549 30.0049L48.7834 3.24309C43.9535 1.75696 38.9552 1.09831 33.8649 1.18608L34.3475 29.1819ZM40.8537 30.0949C42.825 30.6528 44.1832 31.3678 45.1444 32.0825L61.852 9.61353C57.8212 6.61624 53.2914 4.5152 48.4787 3.15311L40.8537 30.0949ZM45.4697 32.3172C46.5206 33.0529 47.1096 33.7517 47.4871 34.3918L71.6053 20.1682C69.0388 15.8162 65.5958 12.2271 61.5267 9.37875L45.4697 32.3172ZM47.4871 34.3918C47.6966 34.7471 47.7542 34.9816 47.7542 35.344H75.7542C75.7542 29.9464 74.3398 24.8049 71.6053 20.1682L47.4871 34.3918ZM47.7542 35.344C47.7542 36.4266 47.6108 37.0032 47.5379 37.2257C47.4775 37.4099 47.4556 37.3931 47.5107 37.3293L68.7017 55.6307C73.8179 49.7067 75.7542 42.4813 75.7542 35.344H47.7542ZM47.3911 37.4696C47.1055 37.8093 46.5167 38.3721 44.8589 38.8195L52.1535 65.8525C58.5597 64.1239 64.3709 60.7827 68.8213 55.4904L47.3911 37.4696ZM46.7426 66.2245C47.4746 66.3174 47.7126 66.4512 47.649 66.4197C47.6172 66.404 47.5365 66.3596 47.431 66.2777C47.3245 66.1952 47.2283 66.1019 47.151 66.0111L68.4853 47.8769C63.5926 42.1208 57.002 39.3024 50.2698 38.4475L46.7426 66.2245ZM47.3988 66.2947C47.308 66.1935 47.2262 66.0801 47.1616 65.9681C47.0979 65.8576 47.0723 65.7858 47.0694 65.7775C47.0652 65.7648 47.1782 66.0934 47.1782 66.928H75.1782C75.1782 60.1809 73.3017 53.2362 68.2376 47.5933L47.3988 66.2947ZM47.1782 66.928C47.1782 67.7628 47.0159 68.3637 46.7362 68.923L71.7802 81.445C74.0605 76.8843 75.1782 71.9812 75.1782 66.928H47.1782ZM46.8007 68.7956C46.4645 69.4512 45.9611 70.1154 45.0996 70.8094L62.6648 92.6146C66.4112 89.5966 69.4919 85.9088 71.7156 81.5724L46.8007 68.7956ZM45.0996 70.8094C44.3547 71.4095 43.1903 72.0933 41.3394 72.674L49.721 99.3901C54.3981 97.9227 58.8017 95.7265 62.6648 92.6146L45.0996 70.8094ZM41.103 72.7504C39.4444 73.3033 37.3772 73.664 34.7782 73.664V101.664C39.9872 101.664 45.088 100.937 49.9574 99.3136L41.103 72.7504ZM34.7782 73.664C31.6913 73.664 29.2303 73.3438 27.2922 72.8498L20.3761 99.9822C24.9661 101.152 29.801 101.664 34.7782 101.664V73.664ZM27.3571 72.8665C25.2013 72.306 23.7803 71.6612 22.8785 71.1101L8.27789 95.0019C11.984 97.2668 16.0671 98.862 20.3113 99.9655L27.3571 72.8665ZM23.0286 71.2031C22.1694 70.663 22.026 70.3676 22.1046 70.4876L-1.31626 85.8324C1.19438 89.6644 4.50701 92.633 8.12779 94.9089L23.0286 71.2031ZM22.2217 70.6693C22.2189 70.6649 22.3169 70.8205 22.4118 71.13C22.5097 71.4494 22.5702 71.8232 22.5702 72.208H-5.42981C-5.42981 77.1938 -3.90749 81.7441 -1.43327 85.6507L22.2217 70.6693ZM22.5702 72.208C22.5702 72.94 22.3948 73.8477 21.9562 74.725L-3.08779 62.203C-4.67842 65.3843 -5.42981 68.788 -5.42981 72.208H22.5702ZM21.6724 75.263C21.2563 76.0119 20.6936 76.7336 19.9997 77.3581C19.313 77.9761 18.6268 78.3835 18.0593 78.6389L6.56908 53.1051C2.72888 54.8332 -0.600751 57.6991 -2.80401 61.665L21.6724 75.263ZM18.5752 78.394C18.359 78.5021 18.1145 78.5912 17.8622 78.6495L11.5662 51.3665C9.64984 51.8088 7.80537 52.4739 6.0532 53.35L18.5752 78.394ZM17.6476 78.6972C17.3557 78.7598 16.8667 78.8235 16.2324 78.7748L18.3799 50.8572C16.0817 50.6805 13.8647 50.8722 11.7808 51.3188L17.6476 78.6972ZM16.3087 78.7804C15.446 78.7188 14.2593 78.4642 13.0023 77.7785L26.4101 53.1975C23.7451 51.7438 20.9584 51.0412 18.3037 50.8516L16.3087 78.7804ZM13.913 78.2331C11.9502 77.341 10.5115 75.9365 9.62293 74.5403L33.2455 59.5077C31.4609 56.7035 28.8702 54.275 25.4994 52.7429L13.913 78.2331ZM9.37507 74.1358C12.1284 78.8045 16.0988 82.7091 21.3492 85.1215L33.0392 59.6785C33.123 59.717 33.2153 59.7678 33.308 59.8301C33.4005 59.8922 33.4754 59.9537 33.5306 60.0052C33.647 60.1138 33.6174 60.1226 33.4933 59.9122L9.37507 74.1358ZM21.6374 85.25C26.0219 87.146 30.6724 87.9373 35.2662 88.0292L35.8261 60.0348C34.02 59.9987 33.1025 59.702 32.7509 59.55L21.6374 85.25ZM35.5462 88.032C38.0152 88.032 40.5369 87.7511 43.0451 87.091L35.9193 60.013C35.9955 59.9929 35.8932 60.032 35.5462 60.032V88.032ZM43.0451 87.091C45.6729 86.3995 48.328 85.2611 50.7875 83.5043L34.5129 60.7197C35.1804 60.2429 35.7234 60.0645 35.9193 60.013L43.0451 87.091ZM51.2997 83.1205C53.6497 81.274 55.6456 78.9596 57.1151 76.2042L32.4092 63.0278C32.8548 62.1924 33.4427 61.542 34.0007 61.1035L51.2997 83.1205ZM57.1151 76.2042C58.8308 72.9874 59.5302 69.5913 59.5302 66.352H31.5302C31.5302 65.5447 31.7176 64.3246 32.4093 63.0278L57.1151 76.2042ZM59.5199 65.8139C59.2472 58.7262 55.2383 53.6958 51.1754 50.6862L34.509 73.1858C34.2672 73.0067 33.5456 72.4198 32.8514 71.2793C32.1043 70.0518 31.6035 68.5264 31.5405 66.8901L59.5199 65.8139ZM51.6389 51.0448C47.479 47.6849 42.6385 46.0574 37.8 45.6754L35.5964 73.5886C35.656 73.5933 35.4758 73.5856 35.1425 73.4606C34.7945 73.3301 34.4064 73.1187 34.0455 72.8272L51.6389 51.0448ZM36.6982 45.632C36.7785 45.632 36.7985 45.6334 36.7269 45.6314C36.6648 45.6297 36.5642 45.6263 36.417 45.6201C36.1209 45.6078 35.7107 45.5875 35.1708 45.5576L33.6176 73.5144C34.7044 73.5748 35.8607 73.632 36.6982 73.632V45.632ZM35.1708 45.5576C33.9765 45.4912 32.6911 45.4253 31.3161 45.3598L29.9843 73.3282C31.2973 73.3907 32.5079 73.4528 33.6176 73.5144L35.1708 45.5576ZM32.0432 45.4135C30.581 45.2673 29.1584 45.1542 27.7788 45.0776L26.2256 73.0344C27.15 73.0858 28.1594 73.1647 29.2572 73.2745L32.0432 45.4135ZM27.7788 45.0776C26.692 45.0172 25.5357 44.96 24.6982 44.96V72.96C24.6179 72.96 24.5979 72.9586 24.6695 72.9606C24.7315 72.9623 24.8322 72.9657 24.9794 72.9719C25.2755 72.9842 25.6857 73.0044 26.2256 73.0344L27.7788 45.0776ZM25.3063 44.9732C26.3579 45.0189 27.9262 45.2951 29.6077 46.2348C31.3365 47.2009 32.5852 48.5349 33.3801 49.8357L9.48825 64.4363C12.8736 69.976 18.4634 72.7021 24.0901 72.9468L25.3063 44.9732ZM33.6724 50.337C34.3182 51.4995 34.4742 52.5765 34.4742 53.2H6.47419C6.47419 56.7675 7.27017 60.4685 9.19599 63.935L33.6724 50.337ZM34.4742 53.2C34.4742 53.8046 34.3238 55.06 33.5013 56.4583L9.36712 42.2617C7.26457 45.836 6.47419 49.6514 6.47419 53.2H34.4742ZM33.3801 56.6603C32.6514 57.8528 31.5659 59.0194 30.1351 59.9032C28.7407 60.7644 27.4262 61.1068 26.509 61.2264L22.8874 33.4616C17.6917 34.1393 12.6399 36.9025 9.48824 42.0597L33.3801 56.6603ZM26.5246 61.2244C28.5823 60.9536 30.3519 60.8082 31.8555 60.7612L30.9809 32.7748C28.3885 32.8558 25.6781 33.0944 22.8718 33.4636L26.5246 61.2244Z" fill="#252322"/>
</g>
<defs>
<filter id="filter0_d_262_274" x="0.841797" y="9.08789" width="78.9121" height="96.5762" filterUnits="userSpaceOnUse" color-interpolation-filters="sRGB">
<feFlood flood-opacity="0" result="BackgroundImageFix"/>
<feColorMatrix in="SourceAlpha" type="matrix" values="0 0 0 0 0 0 0 0 0 0 0 0 0 0 0 0 0 0 127 0" result="hardAlpha"/>
<feOffset dx="6" dy="6"/>
<feGaussianBlur stdDeviation="6"/>
<feComposite in2="hardAlpha" operator="out"/>
<feColorMatrix type="matrix" values="0 0 0 0 0 0 0 0 0 0 0 0 0 0 0 0 0 0 0.5 0"/>
<feBlend mode="normal" in2="BackgroundImageFix" result="effect1_dropShadow_262_274"/>
<feBlend mode="normal" in="SourceGraphic" in2="effect1_dropShadow_262_274" result="shape"/>
</filter>
</defs>
</svg>
