<svg width="497" height="161" viewBox="0 0 497 161" fill="none" xmlns="http://www.w3.org/2000/svg">
<g filter="url(#filter0_d_266_913)">
<path d="M18 34C18 22.9543 26.9543 14 38 14H457C468.046 14 477 22.9543 477 34V121C477 132.046 468.046 141 457 141H38C26.9543 141 18 132.046 18 121V34Z" fill="white"/>
<path d="M20 34C20 24.0589 28.0589 16 38 16H457C466.941 16 475 24.0589 475 34V121C475 130.941 466.941 139 457 139H38C28.0589 139 20 130.941 20 121V34Z" stroke="white" stroke-width="4"/>
</g>
<g filter="url(#filter1_ii_266_913)">
<rect x="17.7441" y="28.8501" width="441.48" height="97.995" rx="20" fill="#424242"/>
</g>
<mask id="mask0_266_913" style="mask-type:alpha" maskUnits="userSpaceOnUse" x="17" y="28" width="443" height="99">
<rect x="17.7441" y="28.8013" width="441.747" height="98.0298" rx="20" fill="#D9D9D9"/>
</mask>
<g mask="url(#mask0_266_913)">
<path d="M73.4617 24.9033C74.753 18.7005 80.2194 14.2549 86.5552 14.2549C95.0379 14.2549 101.378 22.0504 99.6487 30.355L78.8837 130.097C77.5924 136.299 72.1261 140.745 65.7905 140.745C57.3081 140.745 50.9685 132.95 52.6973 124.645L73.4617 24.9033Z" fill="url(#paint0_linear_266_913)" fill-opacity="0.25"/>
<path d="M113.62 24.9033C114.911 18.7005 120.378 14.2549 126.713 14.2549C135.196 14.2549 141.536 22.0504 139.807 30.355L119.042 130.097C117.751 136.299 112.284 140.745 105.949 140.745C97.4663 140.745 91.1267 132.95 92.8555 124.645L113.62 24.9033Z" fill="url(#paint1_linear_266_913)" fill-opacity="0.25"/>
<path d="M153.778 24.9033C155.069 18.7005 160.536 14.2549 166.872 14.2549C175.354 14.2549 181.694 22.0504 179.965 30.355L159.2 130.097C157.909 136.299 152.443 140.745 146.107 140.745C137.624 140.745 131.285 132.95 133.014 124.645L153.778 24.9033Z" fill="url(#paint2_linear_266_913)" fill-opacity="0.25"/>
<path d="M193.938 24.9033C195.23 18.7005 200.696 14.2549 207.032 14.2549C215.514 14.2549 221.854 22.0504 220.125 30.355L199.36 130.097C198.069 136.299 192.603 140.745 186.267 140.745C177.785 140.745 171.445 132.95 173.174 124.645L193.938 24.9033Z" fill="url(#paint3_linear_266_913)" fill-opacity="0.25"/>
<path d="M234.096 24.9033C235.388 18.7005 240.854 14.2549 247.19 14.2549C255.673 14.2549 262.012 22.0504 260.283 30.355L239.518 130.097C238.227 136.299 232.761 140.745 226.425 140.745C217.943 140.745 211.603 132.95 213.332 124.645L234.096 24.9033Z" fill="url(#paint4_linear_266_913)" fill-opacity="0.25"/>
<path d="M274.255 24.9033C275.546 18.7005 281.012 14.2549 287.348 14.2549C295.831 14.2549 302.171 22.0504 300.442 30.355L279.677 130.097C278.385 136.299 272.919 140.745 266.583 140.745C258.101 140.745 251.761 132.95 253.49 124.645L274.255 24.9033Z" fill="url(#paint5_linear_266_913)" fill-opacity="0.25"/>
<path d="M314.415 24.9033C315.706 18.7005 321.173 14.2549 327.508 14.2549C335.991 14.2549 342.331 22.0504 340.602 30.355L319.837 130.097C318.545 136.299 313.079 140.745 306.744 140.745C298.261 140.745 291.922 132.95 293.65 124.645L314.415 24.9033Z" fill="url(#paint6_linear_266_913)" fill-opacity="0.25"/>
<path d="M354.573 24.9033C355.864 18.7005 361.331 14.2549 367.667 14.2549C376.149 14.2549 382.489 22.0504 380.76 30.355L359.995 130.097C358.704 136.299 353.237 140.745 346.902 140.745C338.419 140.745 332.08 132.95 333.809 124.645L354.573 24.9033Z" fill="url(#paint7_linear_266_913)" fill-opacity="0.25"/>
<path d="M394.733 24.9033C396.024 18.7005 401.491 14.2549 407.827 14.2549C416.309 14.2549 422.649 22.0504 420.92 30.355L400.155 130.097C398.864 136.299 393.398 140.745 387.062 140.745C378.58 140.745 372.24 132.95 373.969 124.645L394.733 24.9033Z" fill="url(#paint8_linear_266_913)" fill-opacity="0.25"/>
<path d="M434.889 24.9033C436.181 18.7005 441.647 14.2549 447.983 14.2549C456.466 14.2549 462.805 22.0504 461.076 30.355L440.311 130.097C439.02 136.299 433.554 140.745 427.218 140.745C418.736 140.745 412.396 132.95 414.125 124.645L434.889 24.9033Z" fill="url(#paint9_linear_266_913)" fill-opacity="0.25"/>
</g>
<g filter="url(#filter2_di_266_913)">
<rect x="51.1035" y="33.7148" width="90.8511" height="88.96" rx="20" fill="#363636"/>
</g>
<g filter="url(#filter3_d_266_913)">
<rect y="8" width="141.955" height="139" rx="55" fill="white"/>
</g>
<g filter="url(#filter4_di_266_913)">
<rect x="163" y="38" width="84.5379" height="80.62" rx="20" fill="url(#paint10_linear_266_913)"/>
</g>
<g filter="url(#filter5_bddi_266_913)">
<rect x="261.035" y="38" width="84.5379" height="80.62" rx="20" fill="url(#paint11_linear_266_913)" shape-rendering="crispEdges"/>
</g>
<g filter="url(#filter6_bddi_266_913)">
<rect x="359.07" y="38" width="84.5379" height="80.62" rx="20" fill="url(#paint12_linear_266_913)" shape-rendering="crispEdges"/>
</g>
<defs>
<filter id="filter0_d_266_913" x="14" y="10" width="483" height="151" filterUnits="userSpaceOnUse" color-interpolation-filters="sRGB">
<feFlood flood-opacity="0" result="BackgroundImageFix"/>
<feColorMatrix in="SourceAlpha" type="matrix" values="0 0 0 0 0 0 0 0 0 0 0 0 0 0 0 0 0 0 127 0" result="hardAlpha"/>
<feOffset dx="8" dy="8"/>
<feGaussianBlur stdDeviation="6"/>
<feComposite in2="hardAlpha" operator="out"/>
<feColorMatrix type="matrix" values="0 0 0 0 0 0 0 0 0 0 0 0 0 0 0 0 0 0 0.5 0"/>
<feBlend mode="normal" in2="BackgroundImageFix" result="effect1_dropShadow_266_913"/>
<feBlend mode="normal" in="SourceGraphic" in2="effect1_dropShadow_266_913" result="shape"/>
</filter>
<filter id="filter1_ii_266_913" x="17.7441" y="20.8501" width="441.48" height="109.995" filterUnits="userSpaceOnUse" color-interpolation-filters="sRGB">
<feFlood flood-opacity="0" result="BackgroundImageFix"/>
<feBlend mode="normal" in="SourceGraphic" in2="BackgroundImageFix" result="shape"/>
<feColorMatrix in="SourceAlpha" type="matrix" values="0 0 0 0 0 0 0 0 0 0 0 0 0 0 0 0 0 0 127 0" result="hardAlpha"/>
<feOffset dy="8"/>
<feGaussianBlur stdDeviation="2"/>
<feComposite in2="hardAlpha" operator="arithmetic" k2="-1" k3="1"/>
<feColorMatrix type="matrix" values="0 0 0 0 0 0 0 0 0 0 0 0 0 0 0 0 0 0 0.5 0"/>
<feBlend mode="normal" in2="shape" result="effect1_innerShadow_266_913"/>
<feColorMatrix in="SourceAlpha" type="matrix" values="0 0 0 0 0 0 0 0 0 0 0 0 0 0 0 0 0 0 127 0" result="hardAlpha"/>
<feOffset dy="-8"/>
<feGaussianBlur stdDeviation="4"/>
<feComposite in2="hardAlpha" operator="arithmetic" k2="-1" k3="1"/>
<feColorMatrix type="matrix" values="0 0 0 0 0 0 0 0 0 0 0 0 0 0 0 0 0 0 0.5 0"/>
<feBlend mode="normal" in2="effect1_innerShadow_266_913" result="effect2_innerShadow_266_913"/>
</filter>
<filter id="filter2_di_266_913" x="47.1035" y="33.7148" width="98.8516" height="96.96" filterUnits="userSpaceOnUse" color-interpolation-filters="sRGB">
<feFlood flood-opacity="0" result="BackgroundImageFix"/>
<feColorMatrix in="SourceAlpha" type="matrix" values="0 0 0 0 0 0 0 0 0 0 0 0 0 0 0 0 0 0 127 0" result="hardAlpha"/>
<feOffset dy="4"/>
<feGaussianBlur stdDeviation="2"/>
<feComposite in2="hardAlpha" operator="out"/>
<feColorMatrix type="matrix" values="0 0 0 0 0 0 0 0 0 0 0 0 0 0 0 0 0 0 0.25 0"/>
<feBlend mode="normal" in2="BackgroundImageFix" result="effect1_dropShadow_266_913"/>
<feBlend mode="normal" in="SourceGraphic" in2="effect1_dropShadow_266_913" result="shape"/>
<feColorMatrix in="SourceAlpha" type="matrix" values="0 0 0 0 0 0 0 0 0 0 0 0 0 0 0 0 0 0 127 0" result="hardAlpha"/>
<feOffset dy="14"/>
<feGaussianBlur stdDeviation="4"/>
<feComposite in2="hardAlpha" operator="arithmetic" k2="-1" k3="1"/>
<feColorMatrix type="matrix" values="0 0 0 0 0 0 0 0 0 0 0 0 0 0 0 0 0 0 0.25 0"/>
<feBlend mode="normal" in2="shape" result="effect2_innerShadow_266_913"/>
</filter>
<filter id="filter3_d_266_913" x="0" y="0" width="157.955" height="155" filterUnits="userSpaceOnUse" color-interpolation-filters="sRGB">
<feFlood flood-opacity="0" result="BackgroundImageFix"/>
<feColorMatrix in="SourceAlpha" type="matrix" values="0 0 0 0 0 0 0 0 0 0 0 0 0 0 0 0 0 0 127 0" result="hardAlpha"/>
<feOffset dx="8"/>
<feGaussianBlur stdDeviation="4"/>
<feComposite in2="hardAlpha" operator="out"/>
<feColorMatrix type="matrix" values="0 0 0 0 0 0 0 0 0 0 0 0 0 0 0 0 0 0 0.25 0"/>
<feBlend mode="normal" in2="BackgroundImageFix" result="effect1_dropShadow_266_913"/>
<feBlend mode="normal" in="SourceGraphic" in2="effect1_dropShadow_266_913" result="shape"/>
</filter>
<filter id="filter4_di_266_913" x="159" y="38" width="92.5371" height="88.6201" filterUnits="userSpaceOnUse" color-interpolation-filters="sRGB">
<feFlood flood-opacity="0" result="BackgroundImageFix"/>
<feColorMatrix in="SourceAlpha" type="matrix" values="0 0 0 0 0 0 0 0 0 0 0 0 0 0 0 0 0 0 127 0" result="hardAlpha"/>
<feOffset dy="4"/>
<feGaussianBlur stdDeviation="2"/>
<feComposite in2="hardAlpha" operator="out"/>
<feColorMatrix type="matrix" values="0 0 0 0 0 0 0 0 0 0 0 0 0 0 0 0 0 0 0.25 0"/>
<feBlend mode="normal" in2="BackgroundImageFix" result="effect1_dropShadow_266_913"/>
<feBlend mode="normal" in="SourceGraphic" in2="effect1_dropShadow_266_913" result="shape"/>
<feColorMatrix in="SourceAlpha" type="matrix" values="0 0 0 0 0 0 0 0 0 0 0 0 0 0 0 0 0 0 127 0" result="hardAlpha"/>
<feOffset dy="14"/>
<feGaussianBlur stdDeviation="4"/>
<feComposite in2="hardAlpha" operator="arithmetic" k2="-1" k3="1"/>
<feColorMatrix type="matrix" values="0 0 0 0 1 0 0 0 0 1 0 0 0 0 1 0 0 0 0.5 0"/>
<feBlend mode="normal" in2="shape" result="effect2_innerShadow_266_913"/>
</filter>
<filter id="filter5_bddi_266_913" x="249.035" y="26" width="108.537" height="106.62" filterUnits="userSpaceOnUse" color-interpolation-filters="sRGB">
<feFlood flood-opacity="0" result="BackgroundImageFix"/>
<feGaussianBlur in="BackgroundImageFix" stdDeviation="6"/>
<feComposite in2="SourceAlpha" operator="in" result="effect1_backgroundBlur_266_913"/>
<feColorMatrix in="SourceAlpha" type="matrix" values="0 0 0 0 0 0 0 0 0 0 0 0 0 0 0 0 0 0 127 0" result="hardAlpha"/>
<feOffset dy="4"/>
<feGaussianBlur stdDeviation="2"/>
<feComposite in2="hardAlpha" operator="out"/>
<feColorMatrix type="matrix" values="0 0 0 0 0 0 0 0 0 0 0 0 0 0 0 0 0 0 0.7 0"/>
<feBlend mode="normal" in2="effect1_backgroundBlur_266_913" result="effect2_dropShadow_266_913"/>
<feColorMatrix in="SourceAlpha" type="matrix" values="0 0 0 0 0 0 0 0 0 0 0 0 0 0 0 0 0 0 127 0" result="hardAlpha"/>
<feOffset dy="-4"/>
<feGaussianBlur stdDeviation="4"/>
<feComposite in2="hardAlpha" operator="out"/>
<feColorMatrix type="matrix" values="0 0 0 0 1 0 0 0 0 1 0 0 0 0 1 0 0 0 0.28 0"/>
<feBlend mode="normal" in2="effect2_dropShadow_266_913" result="effect3_dropShadow_266_913"/>
<feBlend mode="normal" in="SourceGraphic" in2="effect3_dropShadow_266_913" result="shape"/>
<feColorMatrix in="SourceAlpha" type="matrix" values="0 0 0 0 0 0 0 0 0 0 0 0 0 0 0 0 0 0 127 0" result="hardAlpha"/>
<feOffset dy="14"/>
<feGaussianBlur stdDeviation="10"/>
<feComposite in2="hardAlpha" operator="arithmetic" k2="-1" k3="1"/>
<feColorMatrix type="matrix" values="0 0 0 0 0 0 0 0 0 0 0 0 0 0 0 0 0 0 0.25 0"/>
<feBlend mode="normal" in2="shape" result="effect4_innerShadow_266_913"/>
</filter>
<filter id="filter6_bddi_266_913" x="347.07" y="26" width="108.537" height="106.62" filterUnits="userSpaceOnUse" color-interpolation-filters="sRGB">
<feFlood flood-opacity="0" result="BackgroundImageFix"/>
<feGaussianBlur in="BackgroundImageFix" stdDeviation="6"/>
<feComposite in2="SourceAlpha" operator="in" result="effect1_backgroundBlur_266_913"/>
<feColorMatrix in="SourceAlpha" type="matrix" values="0 0 0 0 0 0 0 0 0 0 0 0 0 0 0 0 0 0 127 0" result="hardAlpha"/>
<feOffset dy="4"/>
<feGaussianBlur stdDeviation="2"/>
<feComposite in2="hardAlpha" operator="out"/>
<feColorMatrix type="matrix" values="0 0 0 0 0 0 0 0 0 0 0 0 0 0 0 0 0 0 0.7 0"/>
<feBlend mode="normal" in2="effect1_backgroundBlur_266_913" result="effect2_dropShadow_266_913"/>
<feColorMatrix in="SourceAlpha" type="matrix" values="0 0 0 0 0 0 0 0 0 0 0 0 0 0 0 0 0 0 127 0" result="hardAlpha"/>
<feOffset dy="-4"/>
<feGaussianBlur stdDeviation="4"/>
<feComposite in2="hardAlpha" operator="out"/>
<feColorMatrix type="matrix" values="0 0 0 0 1 0 0 0 0 1 0 0 0 0 1 0 0 0 0.28 0"/>
<feBlend mode="normal" in2="effect2_dropShadow_266_913" result="effect3_dropShadow_266_913"/>
<feBlend mode="normal" in="SourceGraphic" in2="effect3_dropShadow_266_913" result="shape"/>
<feColorMatrix in="SourceAlpha" type="matrix" values="0 0 0 0 0 0 0 0 0 0 0 0 0 0 0 0 0 0 127 0" result="hardAlpha"/>
<feOffset dy="14"/>
<feGaussianBlur stdDeviation="10"/>
<feComposite in2="hardAlpha" operator="arithmetic" k2="-1" k3="1"/>
<feColorMatrix type="matrix" values="0 0 0 0 0 0 0 0 0 0 0 0 0 0 0 0 0 0 0.25 0"/>
<feBlend mode="normal" in2="shape" result="effect4_innerShadow_266_913"/>
</filter>
<linearGradient id="paint0_linear_266_913" x1="76.1731" y1="14.2549" x2="76.1731" y2="140.745" gradientUnits="userSpaceOnUse">
<stop stop-color="white" stop-opacity="0.25"/>
<stop offset="1" stop-color="white"/>
</linearGradient>
<linearGradient id="paint1_linear_266_913" x1="116.331" y1="14.2549" x2="116.331" y2="140.745" gradientUnits="userSpaceOnUse">
<stop stop-color="white" stop-opacity="0.25"/>
<stop offset="1" stop-color="white"/>
</linearGradient>
<linearGradient id="paint2_linear_266_913" x1="156.49" y1="14.2549" x2="156.49" y2="140.745" gradientUnits="userSpaceOnUse">
<stop stop-color="white" stop-opacity="0.25"/>
<stop offset="1" stop-color="white"/>
</linearGradient>
<linearGradient id="paint3_linear_266_913" x1="196.65" y1="14.2549" x2="196.65" y2="140.745" gradientUnits="userSpaceOnUse">
<stop stop-color="white" stop-opacity="0.25"/>
<stop offset="1" stop-color="white"/>
</linearGradient>
<linearGradient id="paint4_linear_266_913" x1="236.808" y1="14.2549" x2="236.808" y2="140.745" gradientUnits="userSpaceOnUse">
<stop stop-color="white" stop-opacity="0.25"/>
<stop offset="1" stop-color="white"/>
</linearGradient>
<linearGradient id="paint5_linear_266_913" x1="276.966" y1="14.2549" x2="276.966" y2="140.745" gradientUnits="userSpaceOnUse">
<stop stop-color="white" stop-opacity="0.25"/>
<stop offset="1" stop-color="white"/>
</linearGradient>
<linearGradient id="paint6_linear_266_913" x1="317.126" y1="14.2549" x2="317.126" y2="140.745" gradientUnits="userSpaceOnUse">
<stop stop-color="white" stop-opacity="0.25"/>
<stop offset="1" stop-color="white"/>
</linearGradient>
<linearGradient id="paint7_linear_266_913" x1="357.284" y1="14.2549" x2="357.284" y2="140.745" gradientUnits="userSpaceOnUse">
<stop stop-color="white" stop-opacity="0.25"/>
<stop offset="1" stop-color="white"/>
</linearGradient>
<linearGradient id="paint8_linear_266_913" x1="397.445" y1="14.2549" x2="397.445" y2="140.745" gradientUnits="userSpaceOnUse">
<stop stop-color="white" stop-opacity="0.25"/>
<stop offset="1" stop-color="white"/>
</linearGradient>
<linearGradient id="paint9_linear_266_913" x1="437.601" y1="14.2549" x2="437.601" y2="140.745" gradientUnits="userSpaceOnUse">
<stop stop-color="white" stop-opacity="0.25"/>
<stop offset="1" stop-color="white"/>
</linearGradient>
<linearGradient id="paint10_linear_266_913" x1="205.269" y1="38" x2="205.269" y2="118.62" gradientUnits="userSpaceOnUse">
<stop stop-color="#B2FF51"/>
<stop offset="1" stop-color="#3CA0D8"/>
</linearGradient>
<linearGradient id="paint11_linear_266_913" x1="303.304" y1="38" x2="303.304" y2="118.62" gradientUnits="userSpaceOnUse">
<stop stop-color="#333333"/>
<stop offset="1" stop-opacity="0"/>
</linearGradient>
<linearGradient id="paint12_linear_266_913" x1="401.339" y1="38" x2="401.339" y2="118.62" gradientUnits="userSpaceOnUse">
<stop stop-color="#333333"/>
<stop offset="1" stop-color="#333333" stop-opacity="0"/>
</linearGradient>
</defs>
</svg>
